<svg width="78" height="78" viewBox="0 0 78 78" fill="none" xmlns="http://www.w3.org/2000/svg">
<g clip-path="url(#clip0)">
<path d="M74.4545 0H46.0908C44.1328 0 42.5453 1.58742 42.5453 3.5455C42.5453 5.50357 44.1328 7.09099 46.0908 7.09099H65.8951L29.4022 43.584C28.0175 44.9687 28.0175 47.2133 29.4022 48.598C30.0943 49.2902 31.0017 49.6363 31.909 49.6363C32.8164 49.6363 33.7239 49.2904 34.4161 48.5978L70.9092 12.1049V31.9092C70.9092 33.8672 72.4966 35.4547 74.4547 35.4547C76.4127 35.4547 78.0001 33.8672 78.0001 31.9092V3.5455C78 1.58742 76.4126 0 74.4545 0Z" fill="#6C63FF"/>
<path d="M60.2727 35.4545C58.3146 35.4545 56.7272 37.0419 56.7272 39V70.9091H7.09084V21.2727H39C40.9581 21.2727 42.5455 19.6852 42.5455 17.7272C42.5455 15.7691 40.9581 14.1818 39 14.1818H3.5455C1.58742 14.1818 0 15.7692 0 17.7273V74.4546C0 76.4126 1.58742 78 3.5455 78H60.2728C62.2309 78 63.8183 76.4126 63.8183 74.4545V39C63.8182 37.0419 62.2308 35.4545 60.2727 35.4545Z" fill="#6C63FF"/>
</g>
<defs>
<clipPath id="clip0">
<rect width="78" height="78" fill="white"/>
</clipPath>
</defs>
</svg>
